Coordinates
version=1
nRows=10
nColumns=22
inDegrees=yes

Units are S.I. units (second, meters, Newtons, ...)
If the header above contains a line with 'inDegrees', this indicates whether rotational values are in degrees (yes) or radians (no).

endheader
time	pelvis_tilt	pelvis_list	pelvis_rotation	pelvis_tx	pelvis_ty	pelvis_tz	hip_flexion_r	hip_adduction_r	hip_rotation_r	knee_angle_r	ankle_angle_r	subtalar_angle_r	hip_flexion_l	hip_adduction_l	hip_rotation_l	knee_angle_l	ankle_angle_l	subtalar_angle_l	lumbar_extension	lumbar_bending	lumbar_rotation
      5.86000000	     -0.68765295	     -2.45055102	    -93.88473315	      0.80380586	      0.99716652	     -0.01776724	      0.78824378	      4.25363897	      5.38020844	    -49.41286295	     -3.51828692	     -0.49733921	     15.51508261	     -0.96667756	      6.73201060	    -21.67244677	      6.16339189	      7.02593438	    -13.78579846	     -2.17116459	      5.33960159
      5.87000000	     -0.37200155	     -2.34356871	    -94.86011432	      0.80479346	      0.99776842	     -0.01182016	      2.32967908	      3.24296342	      4.11916824	    -51.73517971	     -4.33169064	     -0.82604182	     15.05288641	     -0.70080478	      5.87653157	    -21.49112942	      6.47178698	      6.71991418	    -13.70381732	     -2.54977084	      5.22380879
      5.88000000	     -0.05800072	     -2.27123802	    -95.82408925	      0.80577226	      0.99832604	     -0.00600321	      3.84067029	      2.20440004	      2.91917541	    -53.93225766	     -4.78485364	     -1.02700362	     14.58676501	     -0.41118509	      5.06283006	    -21.33002010	      6.76486494	      6.40275660	    -13.66679186	     -2.91322797	      5.08776455
      5.89000000	      0.24508769	     -2.23631843	    -96.76602833	      0.80674004	      0.99888850	     -0.00024205	      5.28552799	      1.16218357	      1.78401335	    -55.94028464	     -4.87865919	     -1.12574261	     14.09023611	     -0.10726082	      4.29665601	    -21.15314797	      7.05462090	      6.07322031	    -13.66704218	     -3.25030822	      4.92517823
      5.90000000	      0.53167182	     -2.29374586	    -97.67662041	      0.80766743	      0.99956516	      0.00546214	      6.58106488	      0.13655438	      0.72165981	    -57.71165319	     -4.61306095	     -1.19515572	     13.50868432	      0.20850507	      3.55126868	    -20.96823776	      7.29283986	      5.81246431	    -13.77531312	     -3.56983509	      4.72883958
      5.91000000	      0.76869918	     -2.33358371	    -98.54212811	      0.80852687	      1.00020782	      0.01114543	      7.82674169	     -0.79991349	     -0.28524537	    -59.21559300	     -4.10586468	     -1.41080805	     12.94640983	      0.48716730	      2.85567740	    -20.76339953	      7.56658025	      5.45891469	    -13.85451269	     -3.82052676	      4.47377028
      5.92000000	      0.94668689	     -2.46773563	    -99.36566541	      0.80928135	      1.00103567	      0.01678871	      8.87620538	     -1.63437400	     -1.22672574	    -60.40951517	     -3.35007463	     -1.66099373	     12.27060912	      0.73351859	      2.21631142	    -20.52447345	      7.82432816	      5.26506308	    -14.05184530	     -4.02177136	      4.21658273
      5.93000000	      1.07670395	     -2.59172117	   -100.14265046	      0.80991442	      1.00187654	      0.02235186	      9.85637405	     -2.34756456	     -2.12009266	    -61.30746418	     -2.57221603	     -2.20446934	     11.61762717	      0.93306257	      1.56695690	    -20.28835800	      8.01572097	      4.94892791	    -14.24151470	     -4.17037866	      3.90122465
      5.94000000	      1.11117882	     -2.74500852	   -100.86646311	      0.81041047	      1.00282044	      0.02786220	     10.68604574	     -2.88319165	     -2.98044189	    -61.87227945	     -1.69010282	     -2.82327442	     10.91407466	      1.04893816	      0.98949055	    -20.03024664	      8.27421005	      4.67941234	    -14.48112016	     -4.22703114	      3.60098500
      5.95000000	      1.08767109	     -2.89585209	   -101.56113542	      0.81071112	      1.00381408	      0.03328648	     11.42305486	     -3.25289886	     -3.75644905	    -62.13312640	     -0.77278713	     -3.33079093	     10.19332634	      1.10176999	      0.41402984	    -19.73658222	      8.49494859	      4.48752602	    -14.72740404	     -4.23561418	      3.27109004
